<?xml version="1.0" standalone="no"?>
<!DOCTYPE svg PUBLIC "-//W3C//DTD SVG 20010904//EN"
 "http://www.w3.org/TR/2001/REC-SVG-20010904/DTD/svg10.dtd">
<svg version="1.0" xmlns="http://www.w3.org/2000/svg"
 width="700.000000pt" height="700.000000pt" viewBox="0 0 700.000000 700.000000"
 preserveAspectRatio="xMidYMid meet">
<metadata>
Created by potrace 1.14, written by Peter Selinger 2001-2017
</metadata>
<g transform="translate(0.000000,700.000000) scale(0.100000,-0.100000)"
fill="#000000" stroke="none">
<path d="M3258 6525 c-2 -2 -37 -6 -78 -9 -42 -4 -84 -8 -95 -10 -11 -2 -42
-7 -68 -10 -27 -4 -57 -9 -67 -11 -9 -2 -34 -6 -54 -9 -19 -3 -55 -10 -78 -15
-24 -6 -54 -12 -68 -14 -102 -19 -419 -126 -530 -180 -58 -27 -114 -50 -125
-49 -22 1 -98 -43 -140 -82 -15 -14 -33 -26 -39 -26 -6 0 -45 -27 -86 -61 -41
-33 -95 -77 -120 -97 -25 -20 -81 -71 -125 -113 -44 -42 -109 -103 -144 -135
-75 -70 -476 -472 -562 -564 -33 -35 -67 -78 -75 -95 -7 -16 -29 -50 -48 -75
-19 -25 -35 -49 -35 -54 -1 -4 -23 -39 -50 -76 -56 -76 -117 -180 -106 -180 4
0 0 -11 -9 -25 -26 -40 -131 -331 -140 -389 -1 -6 -5 -16 -8 -22 -4 -6 -10
-26 -13 -45 -3 -19 -12 -56 -20 -84 -13 -46 -48 -248 -60 -340 -46 -365 -13
-872 67 -1029 11 -21 22 -66 24 -100 3 -33 7 -74 9 -91 3 -16 8 -48 11 -70 6
-41 78 -233 95 -250 5 -5 9 -15 9 -22 0 -24 116 -258 178 -360 34 -55 62 -103
62 -107 0 -12 168 -259 204 -301 20 -22 36 -43 36 -46 0 -3 10 -17 23 -31 12
-14 50 -56 83 -94 69 -78 200 -207 233 -231 12 -8 41 -33 64 -55 46 -45 175
-133 210 -144 21 -6 70 -43 132 -99 97 -87 348 -220 620 -328 79 -31 161 -58
221 -72 11 -2 84 -23 164 -46 226 -64 267 -73 375 -85 28 -3 61 -7 75 -10 14
-2 66 -7 115 -10 50 -3 110 -7 135 -9 322 -23 426 -24 536 -2 44 9 95 19 114
22 19 3 42 8 50 10 8 2 32 6 53 9 51 8 316 99 375 129 42 22 130 66 264 133
25 13 59 26 75 30 15 4 30 10 33 14 6 8 321 224 335 229 5 2 26 17 46 32 20
16 42 29 48 29 6 0 11 4 11 8 0 4 14 16 31 26 16 10 42 30 57 44 15 15 50 45
78 67 47 38 76 68 204 214 30 35 78 87 105 117 128 136 173 191 266 329 41 61
78 113 82 116 5 3 8 9 8 13 -2 11 77 164 161 314 10 17 18 34 18 37 0 3 10 26
21 52 66 152 126 319 144 402 2 9 8 31 14 49 5 18 10 33 9 35 0 1 5 20 11 42
6 22 13 58 16 80 4 22 8 47 10 55 3 8 7 33 10 55 4 22 9 54 12 70 21 122 27
210 27 400 0 105 -4 233 -8 285 -10 109 -8 99 -28 170 -26 91 -46 191 -52 255
-2 33 -9 80 -15 105 -5 25 -12 58 -15 73 -27 153 -177 522 -264 651 -17 24
-33 54 -37 66 -4 12 -23 49 -43 81 -21 33 -42 68 -47 77 -13 22 -55 84 -96
142 -30 43 -128 166 -159 201 -8 9 -43 47 -77 85 -102 112 -123 132 -224 218
-59 48 -205 140 -243 152 -11 4 -23 10 -26 13 -8 12 -199 115 -300 163 -91 43
-262 109 -323 123 -15 4 -30 11 -33 16 -3 5 -15 9 -27 9 -22 0 -78 30 -104 55
-15 16 -66 31 -126 38 -21 3 -46 12 -56 21 -10 9 -21 13 -24 9 -4 -3 -7 -2 -7
4 0 13 -105 41 -176 47 -28 2 -65 11 -82 20 -16 8 -53 17 -81 20 -29 3 -56 8
-61 11 -6 3 -35 13 -67 21 -31 8 -62 19 -68 24 -17 14 -100 30 -184 36 -94 6
-369 13 -373 9z"/>
</g>
</svg>
